<svg width="41" height="48" viewBox="0 0 41 48" fill="none" xmlns="http://www.w3.org/2000/svg">
<path d="M17.0681 27.4688C17.0681 29.2781 15.7868 29.85 14.2127 29.85H10.0853V24.8906H14.2951C15.9973 24.9 17.0681 25.6219 17.0681 27.4688V27.4688ZM16.3634 19.7531C16.3634 18.0937 15.1096 17.7 13.7185 17.7H10.0944V21.9H14.0022C15.3842 21.9 16.3634 21.2812 16.3634 19.7531V19.7531ZM28.4712 21.9281C26.7964 21.9281 25.6799 22.9969 25.5701 24.7125H31.2625C31.1069 22.9781 30.2283 21.9281 28.4712 21.9281ZM41 7.5V40.5C41 42.9844 39.0324 45 36.6071 45H4.39286C1.96763 45 0 42.9844 0 40.5V7.5C0 5.01562 1.96763 3 4.39286 3H36.6071C39.0324 3 41 5.01562 41 7.5ZM24.8654 17.3438H31.9855V15.5719H24.8654V17.3438ZM20.9301 27.6844C20.9301 25.425 19.8868 23.475 17.727 22.8469C19.3011 22.0781 20.1248 21.1875 20.1248 19.3781C20.1248 15.7969 17.5165 14.925 14.5056 14.925H6.22321V32.925H14.7435C17.9375 32.9063 20.9301 31.3406 20.9301 27.6844V27.6844ZM34.7768 26.2969C34.7768 22.4438 32.5712 19.2281 28.5902 19.2281C24.7098 19.2281 22.0833 22.2094 22.0833 26.1281C22.0833 30.1875 24.5817 32.9719 28.5902 32.9719C31.6286 32.9719 33.5962 31.575 34.548 28.5844H31.4638C31.1252 29.7 29.7616 30.2812 28.7 30.2812C26.65 30.2812 25.5792 29.0531 25.5792 26.9719H34.7493C34.7585 26.7563 34.7768 26.5219 34.7768 26.2969Z" fill="white" fill-opacity="0.7"/>
</svg>
