<svg width="42" height="48" viewBox="0 0 42 48" fill="none" xmlns="http://www.w3.org/2000/svg">
<path d="M37.5 3H4.5C2.01562 3 0 5.01562 0 7.5V40.5C0 42.9844 2.01562 45 4.5 45H37.5C39.9844 45 42 42.9844 42 40.5V7.5C42 5.01562 39.9844 3 37.5 3ZM25.9969 38.9719C25.2094 39.1125 24.9187 38.625 24.9187 38.2219C24.9187 37.7156 24.9375 35.1281 24.9375 33.0375C24.9375 31.575 24.45 30.6469 23.8781 30.1594C27.3469 29.775 31.0031 29.2969 31.0031 23.3063C31.0031 21.6 30.3938 20.7469 29.4 19.65C29.5594 19.2469 30.0937 17.5875 29.2406 15.4313C27.9375 15.0281 24.9563 17.1094 24.9563 17.1094C23.7188 16.7625 22.3781 16.5844 21.0563 16.5844C19.7344 16.5844 18.3937 16.7625 17.1562 17.1094C17.1562 17.1094 14.175 15.0281 12.8719 15.4313C12.0188 17.5781 12.5438 19.2375 12.7125 19.65C11.7188 20.7469 11.25 21.6 11.25 23.3063C11.25 29.2688 14.7469 29.775 18.2156 30.1594C17.7656 30.5625 17.3625 31.2562 17.2219 32.25C16.3312 32.6531 14.0531 33.3469 12.6937 30.9469C11.8406 29.4656 10.3031 29.3438 10.3031 29.3438C8.78438 29.325 10.2 30.3 10.2 30.3C11.2125 30.7688 11.925 32.5687 11.925 32.5687C12.8344 35.3531 17.1844 34.4156 17.1844 34.4156C17.1844 35.7188 17.2031 37.8375 17.2031 38.2219C17.2031 38.625 16.9219 39.1125 16.125 38.9719C9.9375 36.9 5.60625 31.0125 5.60625 24.1312C5.60625 15.525 12.1875 8.99063 20.7938 8.99063C29.4 8.99063 36.375 15.525 36.375 24.1312C36.3844 31.0125 32.1844 36.9094 25.9969 38.9719ZM16.8 33.2438C16.6219 33.2813 16.4531 33.2062 16.4344 33.0844C16.4156 32.9437 16.5375 32.8219 16.7156 32.7844C16.8938 32.7656 17.0625 32.8406 17.0812 32.9625C17.1094 33.0844 16.9875 33.2063 16.8 33.2438ZM15.9094 33.1594C15.9094 33.2813 15.7687 33.3844 15.5812 33.3844C15.375 33.4031 15.2344 33.3 15.2344 33.1594C15.2344 33.0375 15.375 32.9344 15.5625 32.9344C15.7406 32.9156 15.9094 33.0188 15.9094 33.1594ZM14.625 33.0563C14.5875 33.1781 14.4 33.2344 14.2406 33.1781C14.0625 33.1406 13.9406 33 13.9781 32.8781C14.0156 32.7563 14.2031 32.7 14.3625 32.7375C14.55 32.7938 14.6719 32.9344 14.625 33.0563ZM13.4719 32.55C13.3875 32.6531 13.2094 32.6344 13.0687 32.4938C12.9281 32.3719 12.8906 32.1937 12.9844 32.1094C13.0687 32.0062 13.2469 32.025 13.3875 32.1656C13.5094 32.2875 13.5562 32.475 13.4719 32.55ZM12.6188 31.6969C12.5344 31.7531 12.375 31.6969 12.2719 31.5563C12.1687 31.4156 12.1687 31.2563 12.2719 31.1906C12.375 31.1063 12.5344 31.1719 12.6188 31.3125C12.7219 31.4531 12.7219 31.6219 12.6188 31.6969V31.6969ZM12.0094 30.7875C11.925 30.8719 11.7844 30.825 11.6812 30.7312C11.5781 30.6094 11.5594 30.4687 11.6437 30.4031C11.7281 30.3187 11.8687 30.3656 11.9719 30.4594C12.075 30.5812 12.0938 30.7219 12.0094 30.7875ZM11.3813 30.0938C11.3438 30.1781 11.2219 30.1969 11.1187 30.1312C10.9969 30.075 10.9406 29.9719 10.9781 29.8875C11.0156 29.8312 11.1188 29.8031 11.2406 29.85C11.3625 29.9156 11.4188 30.0187 11.3813 30.0938Z" fill="white" fill-opacity="0.7"/>
</svg>
