<svg width="42" height="42" viewBox="0 0 42 42" fill="none" xmlns="http://www.w3.org/2000/svg">
<path d="M39 0H2.99062C1.34062 0 0 1.35938 0 3.02813V38.9719C0 40.6406 1.34062 42 2.99062 42H39C40.65 42 42 40.6406 42 38.9719V3.02813C42 1.35938 40.65 0 39 0ZM12.6937 36H6.46875V15.9562H12.7031V36H12.6937ZM9.58125 13.2188C7.58437 13.2188 5.97188 11.5969 5.97188 9.60938C5.97188 7.62187 7.58437 6 9.58125 6C11.5687 6 13.1906 7.62187 13.1906 9.60938C13.1906 11.6062 11.5781 13.2188 9.58125 13.2188V13.2188ZM36.0281 36H29.8031V26.25C29.8031 23.925 29.7562 20.9344 26.5687 20.9344C23.325 20.9344 22.8281 23.4656 22.8281 26.0813V36H16.6031V15.9562H22.575V18.6937H22.6594C23.4937 17.1187 25.5281 15.4594 28.5563 15.4594C34.8563 15.4594 36.0281 19.6125 36.0281 25.0125V36V36Z" fill="white" fill-opacity="0.7"/>
</svg>
