<svg xmlns="http://www.w3.org/2000/svg" viewBox="0 0 588.29 1107.41"><defs><style>.cls-1{isolation:isolate;}.cls-2,.cls-8,.cls-9{fill:#3a0ca3;}.cls-2,.cls-3,.cls-4,.cls-5{mix-blend-mode:overlay;}.cls-3,.cls-4,.cls-6{fill:#ffd166;}.cls-4{opacity:0.5;}.cls-7,.cls-9{mix-blend-mode:multiply;}</style></defs><g class="cls-1"><g id="Layer_1" data-name="Layer 1"><path class="cls-2" d="M559.13,84.83v930.35c0,31.56-25.64,57.37-57,57.37H86.11c-31.32,0-56.95-25.81-56.95-57.37V84.83c0-31.56,25.63-57.38,57-57.38H502.17C533.49,27.45,559.13,53.27,559.13,84.83Z"/><rect class="cls-3" width="588.29" height="1107.41" rx="77.49"/><path class="cls-4" d="M502.17,27.45,91.26,1072.55H86.11c-31.32,0-56.95-25.81-56.95-57.37V84.83c0-31.56,25.63-57.38,57-57.38Z"/><rect class="cls-3" x="181.45" y="6.49" width="225.4" height="55.56" rx="25.75"/><g class="cls-5"><circle class="cls-6" cx="161.74" cy="921.63" r="75.63" transform="translate(-604.32 384.31) rotate(-45)"/><g class="cls-7"><path class="cls-8" d="M114.54,920.41c4.94,13,47.22,47.14,47.22,47.14s13.78-11.2,26.54-23.25c9.55-8.93,18.48-18.33,20.59-23.89,5-12.91-.31-31.39-18.79-34.52S161.76,902,161.76,902s-9.95-19.27-28.42-16.13a25,25,0,0,0-8.46,3C113.37,895.28,110.47,909.77,114.54,920.41Z"/></g></g><g class="cls-5"><path class="cls-3" d="M493.23,357a199.08,199.08,0,0,1-398.16,0c0-110,89.12-199.08,199.08-199.08S493.23,247,493.23,357Z"/><path class="cls-9" d="M369.26,451.1c-.54-.6-1.05-1.16-1.55-1.67-2.29-1.76-4.58-2.85-13.78-4.44-4.68-.78-11.18-1.71-20.4-2.91,0,0-2-.22-3-.31l-2.31-.2c-2.64-1.39-3.32-12.34-3.3-23.9,0-.86,0-1.73,0-2.59,0-4.38.19-8.69.35-12.57,0-.25,0-.48,0-.72,5.7.47,9.47.43,9.47.43,10.61-.84,17.23-29.28,19.6-52.26,0,0,5.24-12.61,5.24-26.24,0-7.68-1.65-15.66-6.8-21.94a29.48,29.48,0,0,0-7.45-6.68c-.66-.66-1.34-1.26-2-1.84-9.87-10.95-50-52-76.3-28.26-.68-2.38-9.24-29-50.76-20.3,2.58-.27,21-2,26.31,5.44-.72-.31-16.79-7.45-26.93-1.22-4.68,2.85-7.59,8.77-9.24,15,0,.05,0,.09,0,.13s0,.06,0,.1v0a.65.65,0,0,0,0,.19c-.19.84-.39,1.69-.58,2.54,0,.12-.06.24-.08.39s0,.06,0,.1v0c-1.24,6.44-1.24,12.69-.5,15.72,1.55,6.5,13,25.86,20.59,25.86a22.61,22.61,0,0,0,8.67-2.13,95.52,95.52,0,0,0-3.1,11.27c-8.06,37.94,17.15,66.76,30.21,59.62,8.38-4.56,14.71,10.09,14.71,10.09l0-.06c-1.24,27.75-8.85,45.86-14.5,50.38-2,.23-6.4.77-11.87,1.63v0s-19.25,2.11-33.89,8.48a1.84,1.84,0,0,0-.36.15,35.07,35.07,0,0,0-8.31,4.62s0,.06-.06.06v0a12.08,12.08,0,0,0-2.68,2.79,7,7,0,0,0-.87,1.25c-4.89,9.33-9.82,23.34-14.55,39.76a168.83,168.83,0,0,0,210-6.58C388.32,467.81,376,456.19,369.26,451.1Z"/></g><g class="cls-5"><rect class="cls-6" x="86.11" y="606.66" width="170.99" height="23.71" rx="9.57"/><path class="cls-6" d="M249.37,715.6H93.84a7.75,7.75,0,0,1-7.73-7.73h0a7.75,7.75,0,0,1,7.73-7.73H249.37a7.75,7.75,0,0,1,7.73,7.73h0A7.75,7.75,0,0,1,249.37,715.6Z"/><rect class="cls-6" x="86.11" y="736.72" width="100.33" height="15.46" rx="5.92"/><rect class="cls-6" x="210.45" y="736.72" width="157.84" height="15.46" rx="7.43"/><path class="cls-6" d="M494.45,715.6H290.52a7.75,7.75,0,0,1-7.73-7.73h0a7.75,7.75,0,0,1,7.73-7.73H494.45a7.75,7.75,0,0,1,7.73,7.73h0A7.75,7.75,0,0,1,494.45,715.6Z"/><path class="cls-6" d="M249.37,788.76H93.84A7.75,7.75,0,0,1,86.11,781h0a7.75,7.75,0,0,1,7.73-7.73H249.37A7.75,7.75,0,0,1,257.1,781h0A7.75,7.75,0,0,1,249.37,788.76Z"/><path class="cls-6" d="M494.45,788.76H290.52a7.75,7.75,0,0,1-7.73-7.73h0a7.75,7.75,0,0,1,7.73-7.73H494.45a7.75,7.75,0,0,1,7.73,7.73h0A7.75,7.75,0,0,1,494.45,788.76Z"/><rect class="cls-6" x="278.28" y="606.66" width="125.46" height="23.71" rx="8.2"/></g><g class="cls-5"><circle class="cls-6" cx="426.55" cy="921.63" r="75.63" transform="translate(-526.76 571.56) rotate(-45)"/><path class="cls-9" d="M436.45,921.63l31.12-31.11a7,7,0,1,0-9.9-9.9l-31.12,31.11-31.11-31.11a7,7,0,0,0-9.9,0h0a7,7,0,0,0,0,9.9l31.11,31.11-31.11,31.11a7,7,0,0,0,0,9.9h0a7,7,0,0,0,9.9,0l31.11-31.11,31.12,31.11a7,7,0,1,0,9.9-9.9Z"/></g></g></g></svg>