<svg xmlns="http://www.w3.org/2000/svg" viewBox="0 0 822.43 1108.11"><defs><style>.cls-1{isolation:isolate;}.cls-2{fill:#000072;}.cls-3{fill:#9f4dff;}.cls-4,.cls-7{fill:#fff;}.cls-4{opacity:0.17;}.cls-5{fill:#fdd4a3;opacity:0.27;}.cls-11,.cls-6{fill:#f4ceae;mix-blend-mode:multiply;}.cls-6{opacity:0.6;}.cls-8{fill:#63849c;}.cls-9{fill:#95b3c6;}.cls-10{opacity:0.22;mix-blend-mode:screen;}.cls-11{opacity:0.83;}</style></defs><g class="cls-1"><g id="Layer_1" data-name="Layer 1"><polygon class="cls-2" points="806.95 344.02 743.65 155.66 724.71 99.4 306.64 99.4 306.64 60.71 318.62 60.71 318.62 0 164.31 0 164.31 60.71 176.26 60.71 176.26 99.4 97.72 99.4 49.66 242.21 15.48 344.02 0 390.31 31.42 390.31 31.42 420.53 47.34 420.53 47.34 1091.54 93.76 1091.54 93.76 1108.11 353.94 1108.11 353.94 1091.54 354.97 1091.54 354.97 1108.11 739.31 1108.11 739.31 1091.54 775.1 1091.54 775.1 420.53 791.01 420.53 791.01 390.31 822.43 390.31 806.95 344.02"/><rect class="cls-3" x="65.33" y="340.19" width="691.76" height="733.34"/><rect class="cls-4" x="65.33" y="973.31" width="691.76" height="100.22"/><rect class="cls-5" x="49.42" y="360.95" width="723.59" height="41.58"/><polygon class="cls-2" points="797.43 372.31 25 372.31 32.55 349.73 66.73 247.94 110.66 117.4 711.78 117.4 726.59 161.41 789.88 349.73 797.43 372.31"/><rect class="cls-3" x="194.26" y="30.36" width="94.38" height="87.05"/><polygon class="cls-6" points="288.64 30.36 288.64 55.8 194.26 61.3 194.26 30.36 288.64 30.36"/><rect class="cls-2" x="182.32" y="18" width="118.3" height="24.71"/><polygon class="cls-2" points="262.6 117.4 66.73 247.94 110.66 117.4 262.6 117.4"/><rect class="cls-3" x="151.06" y="762.97" width="145.64" height="275.66"/><path class="cls-7" d="M296.7,763v275.66H151.06V763H296.7m14.67-14.67h-175v305h175v-305Z"/><rect class="cls-2" x="151.06" y="770.08" width="138.53" height="268.55"/><path class="cls-3" d="M181.74,907.81a8.46,8.46,0,1,1-8.46-8.46A8.46,8.46,0,0,1,181.74,907.81Z"/><path class="cls-7" d="M185.19,904.35a8.46,8.46,0,1,1-8.46-8.45A8.46,8.46,0,0,1,185.19,904.35Z"/><rect class="cls-3" x="126.44" y="1037.39" width="194.85" height="26.35"/><rect class="cls-3" x="111.76" y="1063.71" width="224.18" height="26.4"/><polygon class="cls-6" points="521.03 1073.54 335.94 1073.54 335.94 1090.11 217.36 1090.11 224.91 1073.54 229.31 1063.71 372.97 746.54 521.03 1073.54"/><rect class="cls-3" x="372.97" y="782.03" width="348.34" height="308.08"/><polygon class="cls-6" points="721.31 782.03 721.31 828.89 372.97 849.13 372.97 782.03 721.31 782.03"/><rect class="cls-5" x="661.49" y="454.4" width="66.61" height="17.11"/><polygon class="cls-2" points="740.6 793.62 347.52 793.62 363.37 746.54 724.68 746.54 733.63 772.94 740.6 793.62"/><polygon class="cls-6" points="360.77 495.59 353.44 720.73 675.23 713.39 675.23 495.59 360.77 495.59"/><rect class="cls-8" x="382.8" y="502.92" width="285.12" height="181.14"/><path class="cls-7" d="M667.92,502.92V684.06H382.8V502.92H667.92m14.67-14.66H368.13V698.73H682.59V488.26Z"/><polygon class="cls-9" points="525.85 502.92 382.77 646.07 382.77 570.1 450.02 502.92 525.85 502.92"/><polygon class="cls-9" points="580.58 502.92 399.52 684.06 382.8 684.06 382.8 664.7 544.65 502.92 580.58 502.92"/><rect class="cls-7" x="518.52" y="502.92" width="14.67" height="181.14"/><g class="cls-10"><rect class="cls-9" x="382.77" y="522.72" width="93.5" height="161.34"/></g><g class="cls-10"><rect class="cls-9" x="533.18" y="522.72" width="93.5" height="161.34"/></g><polygon class="cls-6" points="408.69 825.6 402.71 1009.07 670.93 1003.1 670.93 825.6 408.69 825.6"/><rect class="cls-8" x="430.98" y="831.61" width="232.32" height="147.55"/><path class="cls-7" d="M663.3,831.61V979.15H431V831.61H663.3M678,816.94H416.31V993.82H678V816.94Z"/><polygon class="cls-9" points="546.48 831.61 430.98 947.18 430.98 871.21 470.65 831.61 546.48 831.61"/><polygon class="cls-9" points="601.19 831.61 453.71 979.15 430.98 979.15 430.98 965.81 565.25 831.61 601.19 831.61"/><g class="cls-10"><rect class="cls-9" x="430.95" y="847.71" width="189.26" height="131.48"/></g><polygon class="cls-6" points="132.53 495.59 125.2 720.73 300.62 713.39 300.62 495.59 132.53 495.59"/><rect class="cls-8" x="154.51" y="502.92" width="138.75" height="181.14"/><path class="cls-7" d="M293.26,502.92V684.06H154.51V502.92H293.26m14.66-14.66H139.84V698.73H307.92V488.26Z"/><polygon class="cls-9" points="283.24 502.92 154.53 631.7 154.53 555.72 207.41 502.92 283.24 502.92"/><polygon class="cls-9" points="293.26 511.58 293.26 547.66 156.86 684.06 154.51 684.06 154.51 650.33 293.26 511.58"/><g class="cls-10"><rect class="cls-9" x="154.51" y="522.72" width="93.5" height="161.34"/></g><rect class="cls-2" x="438.77" y="1024.74" width="66.61" height="17.11"/><rect class="cls-2" x="472.08" y="1044.91" width="66.61" height="17.11"/><polygon class="cls-11" points="797.43 372.31 773.01 372.31 773.01 402.53 757.1 402.53 757.1 422.84 65.33 462.95 65.33 402.53 49.42 402.53 49.42 372.31 25 372.31 32.55 349.73 789.88 349.73 797.43 372.31"/></g></g></svg>