<svg id="Layer_1" data-name="Layer 1" xmlns="http://www.w3.org/2000/svg" viewBox="0 0 897.88 870.92"><defs><style>.cls-1{fill:#9f4dff;}.cls-2{opacity:0.55;}.cls-3{fill:#fff;}.cls-4{fill:#7f65a5;}.cls-5{fill:#000072;}.cls-6{opacity:0.25;}.cls-7{opacity:0.71;}.cls-8{opacity:0.3;}.cls-9{fill:#64c4ff;}</style></defs><path class="cls-1" d="M78.18,590.41c.9,21.66,7.14,43.44,16.64,64.33,25.92,57.07,74.06,101.06,132.62,123.45L248,786.06l149.15,57a299.43,299.43,0,0,0,111.17,20.16C691,860.62,763.75,734.69,821.72,542.48c1.22-4,2.42-8,3.63-12.1L812,531.45l-59.16,4.75a43.25,43.25,0,0,1,23.35-7.06,40.35,40.35,0,0,1,7.35.67,84.77,84.77,0,0,0,27.5.57c44.57-7,57.65-56.06,64.12-100.78,25.77-132.66,19-206.36-25.14-268.84a159.56,159.56,0,0,0-79-58.65L512.5,13.87c-35-11.95-73.72-6.63-103.7,15-3.15,2.29-6.34,4.79-9.49,7.5L468.64,559Z"/><g class="cls-2"><path class="cls-3" d="M403.83,32.61l22.76,9.14a114.7,114.7,0,0,1,90.68-6.89L775.78,123.1a159.55,159.55,0,0,1,79,58.66,206.56,206.56,0,0,1,31,65,208.19,208.19,0,0,0-35.79-86,159.56,159.56,0,0,0-79-58.65L512.5,13.87c-35-11.95-73.72-6.63-103.7,15C407.15,30.05,405.49,31.29,403.83,32.61Z"/></g><path class="cls-4" d="M185.35,145.74C125.94,120.38,58.49,223.46,104.93,277"/><g class="cls-2"><path class="cls-3" d="M99.4,269.6c-15.21-50.24,31.35-117.23,78.85-112.25l7.11-11.61C128.59,121.5,64.49,214.52,99.4,269.6Z"/></g><path class="cls-4" d="M9.61,480.27l9.09,43a90.88,90.88,0,0,0,59.48,67.19l36.21,12.39.19.07,231.8,79.31A102.58,102.58,0,0,0,467.05,638.7L682.88,286.34a68.2,68.2,0,0,0,8.57-49.7l-14.87-70.3A68.25,68.25,0,0,0,632,116L360.47,23.05A109,109,0,0,0,232.2,69.26L21,414A90.81,90.81,0,0,0,9.61,480.27Z"/><g class="cls-2"><path class="cls-3" d="M9.61,480.27l9.09,43a91.12,91.12,0,0,0,10.69,27.45c-.86-2.73-1.6-5.52-2.2-8.36l-9.08-42.95a90.81,90.81,0,0,1,11.41-66.25L240.69,88.35A109,109,0,0,1,369,42.13L640.44,135a68.11,68.11,0,0,1,34.08,25.85c.4.59.8,1.18,1.16,1.79A68.17,68.17,0,0,0,632,116L360.47,23.05A109,109,0,0,0,232.2,69.26L21,414A90.81,90.81,0,0,0,9.61,480.27Z"/></g><path class="cls-5" d="M343.91,689.4,75.71,597.62A99,99,0,0,1,11.23,524.8L2.15,481.86A98.14,98.14,0,0,1,14.52,410L225.69,65.27A116,116,0,0,1,362.93,15.82l271.49,92.91a76.13,76.13,0,0,1,49.62,56l14.87,70.3a75.49,75.49,0,0,1-9.52,55.28L473.56,642.7A109.52,109.52,0,0,1,380,695.44,111.25,111.25,0,0,1,343.91,689.4ZM238.71,73.24,27.55,418a82.91,82.91,0,0,0-10.46,60.7h0l9.08,42.94a83.64,83.64,0,0,0,54.49,61.54L348.85,675a94.39,94.39,0,0,0,111.69-40.23L676.37,282.36a60.26,60.26,0,0,0,7.6-44.14l-14.87-70.3a60.83,60.83,0,0,0-39.62-44.75L358,30.27a102.46,102.46,0,0,0-33.18-5.56A100.74,100.74,0,0,0,238.71,73.24Z"/><path class="cls-5" d="M80,457.64l250.32,85.64A40.12,40.12,0,0,0,376,528.57c.52-.73,1-1.47,1.47-2.24L402.9,485l22.58-36.76L472,372.52,579.12,198a31.24,31.24,0,0,0-16.53-45.9L331.09,72.92a50.68,50.68,0,0,0-59.5,21.4l-26,42.34L223,173.42l-26.8,43.67L68.39,425.24A22.06,22.06,0,0,0,80,457.64Z"/><g class="cls-2"><path class="cls-3" d="M87.66,481.17,338,566.82a40.15,40.15,0,0,0,45.7-14.72c.51-.72,1-1.47,1.47-2.23l25.38-41.35,22.58-36.76,46.5-75.7L586.75,221.58a31.23,31.23,0,0,0-3.13-37,31.37,31.37,0,0,1-4.5,13.42L472,372.52l-46.5,75.71L402.9,485l-25.39,41.34c-.48.77-.95,1.51-1.47,2.24a40.12,40.12,0,0,1-45.69,14.71L80,457.64a22.34,22.34,0,0,1-6.39-3.46A22,22,0,0,0,87.66,481.17Z"/></g><path class="cls-5" d="M104.94,284.68A7.64,7.64,0,0,0,110.7,272c-23.1-26.66-13.6-66.27,5-91.78,14.35-19.68,40.42-38.69,66.64-27.5a7.64,7.64,0,0,0,6-14c-28.38-12.11-61.73.67-85,32.55C81.32,201.51,70.59,249.07,99.16,282A7.64,7.64,0,0,0,104.94,284.68Z"/><path class="cls-5" d="M568.93,695.48q9.3,0,19.14-.94c59.81-5.77,90.94-49.19,142.51-121.13q6.17-8.6,12.76-17.75c10.14-14,24.64-20.91,38.8-18.33,23.34,4,43,.28,58.44-11,28-20.36,37.18-61.68,42.08-95.47,26.31-135.57,19.15-210-26.43-274.52a166.09,166.09,0,0,0-82.77-61.48L515,6.63C477.4-6.19,436-.2,404.34,22.67c-3.42,2.46-6.79,5.12-10,7.88a7.63,7.63,0,1,0,10,11.58c2.89-2.48,5.91-4.86,9-7.08,27.7-20,63.87-25.19,96.76-14l258.5,88.25a151,151,0,0,1,75.23,55.84c42.85,60.69,49.32,132,23.87,263l-.06.36C863.11,459.37,855,497,831.59,514c-12.19,8.87-27.5,11.58-46.8,8.29-20-3.63-40.17,5.49-53.83,24.43q-6.63,9.18-12.79,17.8c-50.72,70.74-78.66,109.71-131.56,114.82-34.93,3.36-64-3-81.91-17.8-11.81-9.79-18.55-23.19-20.05-39.84a7.64,7.64,0,0,0-15.21,1.38c1.88,20.84,10.46,37.73,25.51,50.22C512.46,687.82,538.29,695.48,568.93,695.48Z"/><path class="cls-5" d="M802.75,482a30.82,30.82,0,0,0,24.65-12c10.42-13.48,17.54-38.52,22.38-78.82,8-55.8,9.73-93,6.1-128.3a3.4,3.4,0,0,0-.06-.46c-6.91-42-30.28-72.65-64.12-84.08-35.25-11.91-76.37-.07-110,31.65A7.63,7.63,0,0,0,692.2,221c29.88-28.19,64.36-38.5,94.61-28.28,28.26,9.54,47.9,35.73,53.91,71.86,3.46,33.89,1.7,70-6.08,124.53-4.46,37.09-10.77,60.41-19.32,71.45a15.79,15.79,0,0,1-13.44,6.11,16.93,16.93,0,0,1-13.53-7.88,20.64,20.64,0,0,0-11.14-8.63L612.66,397.52A7.63,7.63,0,1,0,608,412.06l164.56,52.65a5.31,5.31,0,0,1,2.86,2.22,32.25,32.25,0,0,0,25.72,15C801.68,482,802.21,482,802.75,482Z"/><path class="cls-5" d="M504.21,870.92l4.24,0c187.8-2.71,263.29-131.47,324.22-338.35A7.63,7.63,0,1,0,818,528.23c-59,200.21-131.37,324.82-309.8,327.39-36.38.57-72.84-6.09-108.33-19.66l-169.74-64.9C172.33,749,126.73,706.52,101.77,651.58,92,630,86.6,609.34,85.82,590.09a7.74,7.74,0,0,0-7.95-7.32,7.63,7.63,0,0,0-7.31,7.94c.87,21.23,6.69,43.83,17.31,67.19,26.63,58.62,75.23,103.87,136.84,127.43l169.74,64.9A306.56,306.56,0,0,0,504.21,870.92Z"/><path class="cls-5" d="M518,823.1c93.39,0,211-75.92,272.84-291.18a7.64,7.64,0,0,0-14.68-4.21C714.52,742.38,597.43,813,508.51,807.54c-69.74-4.29-123.88-53.28-134.72-121.91A7.64,7.64,0,1,0,358.7,688c5.9,37.33,23.47,70,50.81,94.44,26.95,24.09,60.86,38,98.06,40.33C511,823,514.5,823.1,518,823.1Z"/><ellipse class="cls-5" cx="555.19" cy="618.79" rx="48.39" ry="29.03" transform="translate(-97.22 103.53) rotate(-9.8)"/><ellipse class="cls-5" cx="498.89" cy="725.97" rx="18.03" ry="10.82"/><ellipse class="cls-5" cx="425.52" cy="721.7" rx="8.22" ry="13.7" transform="translate(-376.28 964.67) rotate(-76.33)"/><path class="cls-5" d="M791.33,479.18a7.63,7.63,0,0,0,7.46-6.06C830,325,830.31,252.92,799.85,216c-16.91-20.52-44-30.19-83-29.59a7.64,7.64,0,0,0,.12,15.27h.12c34.45-.58,57.06,7.1,71,24,26.74,32.46,25.52,103.24-4.22,244.3a7.64,7.64,0,0,0,5.89,9A7.8,7.8,0,0,0,791.33,479.18Z"/><g class="cls-6"><path class="cls-3" d="M245.6,136.66,425.48,448.23,472,372.52,298.91,72.75a50.5,50.5,0,0,0-27.32,21.57Z"/></g><g class="cls-6"><path class="cls-3" d="M196.22,217.09,376,528.57c.52-.73,1-1.47,1.47-2.24L402.9,485,223,173.42Z"/></g><g class="cls-7"><path class="cls-3" d="M244.53,461.42A7.64,7.64,0,0,0,247,446.56l-50.61-17.32a7.63,7.63,0,1,0-4.94,14.44L242.06,461A7.63,7.63,0,0,0,244.53,461.42Z"/></g><path class="cls-5" d="M327.88,550.51,77.57,464.85a29.68,29.68,0,0,1-15.68-43.61L265.1,90.33a57.88,57.88,0,0,1,68.46-24.62l231.51,79.2A38.87,38.87,0,0,1,585.61,202L384,530.32a47.45,47.45,0,0,1-40.52,22.8A48.34,48.34,0,0,1,327.88,550.51ZM278.11,98.32,74.9,429.23a14.42,14.42,0,0,0,7.61,21.18h0l250.31,85.65A32.28,32.28,0,0,0,371,522.33L572.6,194.06a23.61,23.61,0,0,0-12.48-34.7l-231.5-79.2a43.34,43.34,0,0,0-14.05-2.36A42.7,42.7,0,0,0,278.11,98.32Z"/><g class="cls-8"><path class="cls-5" d="M114.39,602.8l.19.07,231.8,79.31A102.58,102.58,0,0,0,467.05,638.7L682.88,286.34a68.2,68.2,0,0,0,8.57-49.7L666,141.79,408.87,559.31a63.81,63.81,0,0,1-75.08,26.9L52.62,489.69a8.49,8.49,0,0,0-11.25,8.62C43.29,524.11,54.36,582.26,114.39,602.8Z"/></g><g class="cls-8"><path class="cls-5" d="M806.79,358.15c-3.38,20.71-14.71,91.45-13.36,103.27,1.59,13.87,16.32,11.85,16.32,11.85,38.25,7.92,9.34,55.3,9.34,55.3,26.09-4.41,43.31-45.66,43.31-45.66l12.73-53.31c36.36-193.84-42.57-326.9-203.42-272.5l19.74,79.54-.79,21.24L662.2,320.11l144.59,38a.15.15,0,0,0,0-.08v-17.5a107.69,107.69,0,0,1,.94,11.87s-.35,2.06-.94,5.63v.08Z"/></g><g class="cls-8"><path class="cls-5" d="M806.79,358.15h0v-.08A.15.15,0,0,1,806.79,358.15Z"/></g><g class="cls-8"><path class="cls-5" d="M806.79,358.15h0v-.08A.15.15,0,0,1,806.79,358.15Z"/></g><g class="cls-8"><path class="cls-5" d="M233.21,777.13c4.79,2.94,9.73,5.93,14.81,8.93l149.15,57a299.43,299.43,0,0,0,111.17,20.16C691,860.62,763.75,734.69,821.72,542.48l-9.75-11-1-1.07-45.08-1.81s-16.7-22.49-49,7.1c0,0-68.56,114.52-122,119.29s-108.28-30.23-78-97.67l-36.06,69v14s73,115.72,200,47.54c0,0-29.07,125.24-163.9,127.6,0,0-54.76,5.23-102.43-38.82,0,0-42.56-55.49-51.48-92.4L121.28,605.16S107.23,699.5,233.21,777.13Z"/></g><g class="cls-8"><path class="cls-5" d="M509.87,672.64s-32.34,73-121.1,72l-21.63-52.81S416.79,709.43,472,630.66l19.87,31.94Z"/></g><path class="cls-3" d="M276.88,263.33q-21.08-7.83-25.07-30-4.17-22.22,9.53-50.94,14.15-29.4,35.85-41.49c14.53-8,29.31-9.24,44.19-3.71q23.25,8.69,26,31.18,2.58,22.45-12.26,50.24Q340.1,247,318.79,259C304.66,267.06,290.73,268.51,276.88,263.33Zm13.39-26q7.39,2.76,14.87-6.14t16.21-25.93q12-23.38,12.3-31.82t-5.6-10.63q-7.14-2.65-14.64,5.81t-15.8,25.13q-11.26,22.59-12.69,31.82T290.27,237.37Z"/><path class="cls-3" d="M439.14,291.61l-15.37-6.15-15.16,26.37-30.11-11.9,14.78-26.51-46.19-17.9,14.12-26.45,82.34-52.93,35.63,14.05-40.34,69.19,15.56,6.22ZM408,247.19l20.27-36L386.46,238.8Z"/><path class="cls-9" d="M262.82,391.45l-16.47,29.6-82.53-30.87L177,361.59l26-7.79q5.68-1.62,22.17-7.82t22.78-10.45a27.3,27.3,0,0,0,9.31-10.39q2.91-5.85,1.61-10.56a9.57,9.57,0,0,0-6.33-6.58Q240,303.32,228.1,324.1l-26-16.72q13.46-20.72,31.37-26.65a51.93,51.93,0,0,1,35.3.56q18.66,7,24.86,22.06t-3.13,32.76a56.52,56.52,0,0,1-17.71,20.14q-11.58,8.34-52.33,19.19Z"/><path class="cls-9" d="M384.64,364.48,339.9,346.8l-10.56,16.64q12.44-3.42,23,.73,13.85,5.47,18,20.31c2.69,9.87.58,20.78-6.25,32.75q-10.79,18.93-29,26.22a47.09,47.09,0,0,1-36.17.23q-15.84-6.21-22.38-20.62t-.27-33.22l29.46,6.78q-4.38,14.31,7.55,19a13.7,13.7,0,0,0,11.73-.56,21.42,21.42,0,0,0,9.09-9q3.81-6.91,2.05-12.35a11.72,11.72,0,0,0-7.2-7.57q-8.07-3.17-16.54,2.78L290,375.47l41.72-68.07L404.43,336Z"/></svg>