<svg xmlns="http://www.w3.org/2000/svg" viewBox="0 0 960 927"><defs><style>.cls-1{isolation:isolate;}.cls-2,.cls-5{mix-blend-mode:overlay;}.cls-3{fill:#3a0ca3;}.cls-4{fill:#ffd166;}.cls-5{opacity:0.5;}</style></defs><g class="cls-1"><g id="Layer_1" data-name="Layer 1"><g class="cls-2"><path class="cls-3" d="M99.29,623c.9,21.66,7.14,43.44,16.65,64.32C141.86,744.34,190,788.34,248.56,810.73l20.58,7.87,149.15,57a299.37,299.37,0,0,0,111.16,20.16C712.14,893.15,784.87,767.23,842.84,575q1.83-6,3.62-12.1L833.08,564l-59.15,4.76a43.22,43.22,0,0,1,23.34-7.06,41.15,41.15,0,0,1,7.35.66,84.86,84.86,0,0,0,27.51.58c44.57-7,57.64-56.06,64.11-100.79,25.77-132.66,19-206.35-25.13-268.83a159.54,159.54,0,0,0-79-58.65L533.62,46.4a114.24,114.24,0,0,0-103.71,15c-3.15,2.29-6.34,4.79-9.48,7.5L689,182l23,116L460,706l-65,13Z"/></g><g class="cls-2"><path class="cls-4" d="M425,65.15l22.75,9.14a114.73,114.73,0,0,1,90.69-6.89l258.5,88.24a159.56,159.56,0,0,1,79,58.66,206.38,206.38,0,0,1,31,64.95,208.19,208.19,0,0,0-35.78-85.95,159.54,159.54,0,0,0-79-58.65L533.62,46.4a114.24,114.24,0,0,0-103.71,15C428.27,62.59,426.61,63.83,425,65.15Z"/></g><g class="cls-2"><path class="cls-3" d="M30.73,512.81l9.09,43A90.9,90.9,0,0,0,99.29,623l36.21,12.38a.64.64,0,0,1,.19.08L367.5,714.72a102.58,102.58,0,0,0,120.67-43.48L704,318.88a68.11,68.11,0,0,0,8.57-49.7l-14.87-70.3a68.23,68.23,0,0,0-44.62-50.4L381.58,55.58A109,109,0,0,0,253.31,101.8L42.15,446.56A90.81,90.81,0,0,0,30.73,512.81Z"/></g><g class="cls-2"><path class="cls-4" d="M30.73,512.81l9.09,43a90.86,90.86,0,0,0,10.69,27.45,86.22,86.22,0,0,1-2.2-8.36l-9.08-43a90.81,90.81,0,0,1,11.41-66.25L261.81,120.88A109,109,0,0,1,390.08,74.67l271.48,92.9a68,68,0,0,1,34.07,25.85c.4.59.8,1.18,1.17,1.79a68.2,68.2,0,0,0-43.73-46.73L381.58,55.58A109,109,0,0,0,253.31,101.8L42.15,446.56A90.81,90.81,0,0,0,30.73,512.81Z"/></g><g class="cls-2"><path class="cls-4" d="M365,721.94,96.83,630.16a99,99,0,0,1-64.48-72.82l-9.08-43a98.08,98.08,0,0,1,12.37-71.82L246.8,97.8A116,116,0,0,1,384.05,48.36l271.49,92.9a76.2,76.2,0,0,1,49.62,56L720,267.6a75.52,75.52,0,0,1-9.52,55.27L494.67,675.24A109.5,109.5,0,0,1,401.09,728,111.26,111.26,0,0,1,365,721.94ZM259.82,105.78,48.66,450.54a82.9,82.9,0,0,0-10.45,60.7h0l9.07,42.94a83.61,83.61,0,0,0,54.49,61.53L370,707.49a94.38,94.38,0,0,0,111.68-40.23L697.48,314.9a60.33,60.33,0,0,0,7.61-44.14l-14.87-70.31a60.82,60.82,0,0,0-39.63-44.74L379.1,62.81a102.15,102.15,0,0,0-33.18-5.56A100.76,100.76,0,0,0,259.82,105.78Z"/></g><g class="cls-2"><path class="cls-4" d="M101.15,490.17l250.31,85.65a40.15,40.15,0,0,0,45.7-14.72c.51-.72,1-1.47,1.47-2.23L424,517.53l22.58-36.77,46.5-75.7L600.23,230.58a31.23,31.23,0,0,0-16.53-45.91L352.21,105.46a50.67,50.67,0,0,0-59.5,21.4l-26,42.33L244.13,206l-26.8,43.67L89.5,457.78A22,22,0,0,0,101.15,490.17Z"/></g><g class="cls-2"><path class="cls-4" d="M108.78,513.71,359.1,599.35a40.12,40.12,0,0,0,45.69-14.71c.52-.73,1-1.47,1.47-2.24l25.39-41.34,22.58-36.76,46.5-75.7L607.87,254.12a31.25,31.25,0,0,0-3.13-37,31.3,31.3,0,0,1-4.51,13.42L493.09,405.06l-46.5,75.7L424,517.53l-25.38,41.34c-.48.76-1,1.51-1.47,2.23a40.15,40.15,0,0,1-45.7,14.72L101.15,490.17a22.13,22.13,0,0,1-6.4-3.45A22,22,0,0,0,108.78,513.71Z"/></g><g class="cls-2"><path class="cls-4" d="M126.05,317.21a7.63,7.63,0,0,0,5.77-12.63C108.71,277.92,146.39,265.52,165,240c14.35-19.68,12.24-65.89,38.47-54.71a7.63,7.63,0,1,0,6-14c-28.38-12.11-61.73.67-85,32.55-22.06,30.24-32.78,77.81-4.21,110.78A7.61,7.61,0,0,0,126.05,317.21Z"/></g><g class="cls-2"><path class="cls-4" d="M590.05,728q9.29,0,19.14-.95C669,721.3,700.13,677.89,751.7,606q6.16-8.6,12.76-17.76c10.13-14.05,24.64-20.9,38.8-18.33,23.33,4,43,.28,58.44-11,28-20.35,37.18-61.68,42.08-95.46,26.31-135.58,19.14-210-26.43-274.52a166.17,166.17,0,0,0-82.77-61.49L536.08,39.17c-37.57-12.82-78.92-6.83-110.62,16-3.43,2.47-6.79,5.12-10,7.89a7.64,7.64,0,1,0,10,11.58c2.88-2.48,5.9-4.87,9-7.08,27.69-20,63.87-25.19,96.76-14l258.5,88.24a151,151,0,0,1,75.22,55.85c42.86,60.68,49.33,132,23.88,263l-.06.36c-4.46,30.85-12.58,68.45-36,85.49-12.19,8.87-27.5,11.58-46.8,8.28-20-3.62-40.17,5.49-53.84,24.44q-6.62,9.18-12.78,17.79c-50.72,70.75-78.66,109.72-131.57,114.82-34.92,3.36-64-3-81.9-17.79-11.81-9.79-18.56-23.2-20.06-39.84a7.63,7.63,0,1,0-15.2,1.37c1.87,20.84,10.46,37.74,25.51,50.23C533.58,720.36,559.41,728,590.05,728Z"/></g><g class="cls-2"><path class="cls-4" d="M823.86,514.5a30.82,30.82,0,0,0,24.66-12.06c10.42-13.47,17.53-38.52,22.38-78.81,8-55.8,9.73-93,6.1-128.31l-.06-.46c-6.91-42-30.29-72.64-64.13-84.07-35.24-11.91-76.36-.07-110,31.64a7.64,7.64,0,1,0,10.48,11.11c29.87-28.19,64.36-38.5,94.61-28.28,28.25,9.54,47.89,35.72,53.9,71.86,3.47,33.89,1.7,70-6.07,124.52-4.46,37.09-10.78,60.41-19.32,71.46A15.84,15.84,0,0,1,823,499.21a17,17,0,0,1-13.53-7.88,20.62,20.62,0,0,0-11.13-8.63L633.77,430.06a7.63,7.63,0,1,0-4.65,14.54l164.55,52.64a5.27,5.27,0,0,1,2.87,2.23,32.23,32.23,0,0,0,25.71,15C822.79,514.48,823.33,514.5,823.86,514.5Z"/></g><g class="cls-2"><path class="cls-4" d="M525.33,903.46q2.11,0,4.23,0c187.8-2.72,263.3-131.48,324.23-338.35a7.64,7.64,0,0,0-14.65-4.32c-59,200.22-131.37,324.82-309.8,327.4-36.37.57-72.83-6.09-108.32-19.66L251.28,803.6c-57.83-22.11-103.43-64.55-128.4-119.48-9.79-21.56-15.16-42.25-15.95-61.5A7.72,7.72,0,0,0,99,615.31a7.64,7.64,0,0,0-7.32,7.94c.88,21.23,6.7,43.83,17.31,67.18,26.64,58.62,75.24,103.88,136.84,127.43l169.74,64.9A306.41,306.41,0,0,0,525.33,903.46Z"/></g><g class="cls-2"><path class="cls-4" d="M539.12,855.64c93.39,0,211-75.92,272.84-291.18a7.63,7.63,0,1,0-14.67-4.22C735.64,774.92,618.55,845.57,529.62,840.08c-69.73-4.29-123.87-53.29-134.72-121.92a7.63,7.63,0,1,0-15.08,2.38c5.9,37.34,23.47,70,50.81,94.44,26.95,24.1,60.86,38,98.06,40.34Q533.85,855.64,539.12,855.64Z"/></g><g class="cls-2"><ellipse class="cls-4" cx="576.3" cy="651.32" rx="48.39" ry="29.03" transform="translate(-102.45 107.59) rotate(-9.8)"/></g><g class="cls-2"><ellipse class="cls-4" cx="520" cy="758.5" rx="18.03" ry="10.82"/></g><g class="cls-2"><ellipse class="cls-4" cx="446.64" cy="754.23" rx="8.22" ry="13.7" transform="translate(-391.76 1010.03) rotate(-76.33)"/></g><g class="cls-2"><path class="cls-4" d="M812.44,511.72a7.65,7.65,0,0,0,7.47-6.06c31.22-148.1,31.52-220.2,1.06-257.16-16.91-20.52-44-30.19-83-29.59a7.64,7.64,0,0,0,.11,15.27h.13c34.45-.58,57.06,7.1,71,24,26.74,32.45,25.52,103.23-4.23,244.3a7.63,7.63,0,0,0,5.9,9A7.14,7.14,0,0,0,812.44,511.72Z"/></g><g class="cls-5"><path class="cls-4" d="M266.71,169.19,446.59,480.76l46.5-75.7L320,105.29a50.44,50.44,0,0,0-27.31,21.57Z"/></g><g class="cls-5"><path class="cls-4" d="M217.33,249.63,397.16,561.1c.51-.72,1-1.47,1.47-2.23L424,517.53,244.13,206Z"/></g><g class="cls-2"><path class="cls-4" d="M265.65,494a7.64,7.64,0,0,0,2.47-14.86l-50.61-17.32a7.64,7.64,0,0,0-4.95,14.45l50.61,17.32A7.67,7.67,0,0,0,265.65,494Z"/></g><g class="cls-2"><path class="cls-4" d="M349,583,98.68,497.39A29.68,29.68,0,0,1,83,453.78L286.21,122.87a57.9,57.9,0,0,1,68.46-24.63l231.51,79.21a38.87,38.87,0,0,1,20.55,57.13L405.13,562.86a47.43,47.43,0,0,1-40.51,22.8A48.09,48.09,0,0,1,349,583ZM299.22,130.86,96,461.77a14.41,14.41,0,0,0,7.62,21.17h0L353.94,568.6a32.29,32.29,0,0,0,38.18-13.73l201.6-328.28a23.61,23.61,0,0,0-12.48-34.7l-231.51-79.2a43.29,43.29,0,0,0-14.05-2.35A42.7,42.7,0,0,0,299.22,130.86Z"/></g><g class="cls-2"><path class="cls-3" d="M135.5,635.33a.64.64,0,0,1,.19.08L367.5,714.72a102.58,102.58,0,0,0,120.67-43.48L704,318.88a68.11,68.11,0,0,0,8.57-49.7l-25.42-94.85L430,591.85a63.84,63.84,0,0,1-75.09,26.9L73.74,522.22a8.5,8.5,0,0,0-11.25,8.63C64.4,556.65,75.48,614.79,135.5,635.33Z"/></g><g class="cls-2"><path class="cls-4" d="M827.91,390.69c-3.38,20.71-14.72,91.45-13.36,103.26,1.58,13.88,16.32,11.86,16.32,11.86,38.25,7.92,9.33,55.29,9.33,55.29,26.1-4.41,43.31-45.66,43.31-45.66l12.73-53.31c36.37-193.83-42.56-326.89-203.41-272.49l19.73,79.54-.78,21.24-28.46,62.23,144.59,38a.15.15,0,0,0,0-.08v-17.5a108.73,108.73,0,0,1,.93,11.87l-.93,5.63v.08Z"/></g><g class="cls-2"><path class="cls-4" d="M827.91,390.69h0v-.08A.15.15,0,0,1,827.91,390.69Z"/></g><g class="cls-2"><path class="cls-4" d="M827.91,390.69h0v-.08A.15.15,0,0,1,827.91,390.69Z"/></g><g class="cls-2"><path class="cls-4" d="M254.32,809.66c4.8,2.94,9.74,5.94,14.82,8.94l149.15,57a299.37,299.37,0,0,0,111.16,20.16C712.14,893.15,784.87,767.23,842.84,575l-9.76-11-1-1.06L787,561.1s-16.7-22.48-49,7.1c0,0-68.56,114.53-122,119.3s-108.29-30.23-78-97.67l-36,69v14s73,115.73,200,47.55c0,0-29.07,125.23-163.91,127.6,0,0-54.76,5.23-102.42-38.82,0,0-42.57-55.49-51.48-92.41L142.39,637.7S128.35,732,254.32,809.66Z"/></g><g class="cls-2"><path class="cls-4" d="M531,705.18s-32.34,73-121.1,72L388.25,724.4S437.91,742,493.09,663.2L513,695.14Z"/></g><g class="cls-2"><path class="cls-4" d="M298,295.87q-21.09-7.85-25.07-30-4.17-22.22,9.53-50.94,14.15-29.41,35.84-41.49c14.54-8,29.31-9.24,44.2-3.72q23.25,8.68,26,31.19,2.58,22.44-12.25,50.23-15,28.35-36.33,40.39C325.77,299.59,311.85,301.05,298,295.87Zm13.39-26q7.39,2.74,14.86-6.14t16.22-25.93q12-23.39,12.3-31.82t-5.6-10.64q-7.14-2.65-14.65,5.82t-15.8,25.13Q307.47,248.92,306,258.15T311.39,269.91Z"/><path class="cls-4" d="M460.25,324.15,444.89,318l-15.17,26.37-30.1-11.9L414.4,306l-46.19-17.89,14.12-26.45,82.34-52.93,35.63,14L460,291.92l15.56,6.22Zm-31.16-44.43,20.28-36-41.79,27.59Z"/><path class="cls-4" d="M283.94,424l-16.47,29.61-82.54-30.87,13.13-28.6,26-7.78q5.7-1.63,22.18-7.83T269,368.07a27.23,27.23,0,0,0,9.3-10.4q2.91-5.85,1.61-10.55a9.56,9.56,0,0,0-6.32-6.59q-12.57-4.66-24.41,16.1l-26-16.71q13.47-20.71,31.37-26.65a52,52,0,0,1,35.31.55q18.66,7,24.85,22.07t-3.12,32.75a56.64,56.64,0,0,1-17.72,20.14q-11.56,8.36-52.32,19.19Z"/><path class="cls-4" d="M405.76,397,361,379.34,350.45,396q12.44-3.44,23,.73,13.85,5.48,18,20.31t-6.26,32.75q-10.77,18.92-29,26.22a47,47,0,0,1-36.16.22q-15.84-6.21-22.38-20.62t-.28-33.21l29.47,6.77q-4.39,14.33,7.55,19a13.68,13.68,0,0,0,11.72-.55,21.41,21.41,0,0,0,9.1-9q3.81-6.9,2-12.34a11.69,11.69,0,0,0-7.19-7.58q-8.07-3.15-16.55,2.79L311.08,408l41.73-68.08,72.74,28.57Z"/></g></g></g></svg>